<?xml version="1.0" standalone="no"?>
<!DOCTYPE svg PUBLIC "-//W3C//DTD SVG 20010904//EN"
 "http://www.w3.org/TR/2001/REC-SVG-20010904/DTD/svg10.dtd">
<svg version="1.0" xmlns="http://www.w3.org/2000/svg"
 width="200.000000pt" height="200.000000pt" viewBox="0 0 200.000000 200.000000"
 preserveAspectRatio="xMidYMid meet">

<g transform="translate(0.000000,200.000000) scale(0.100000,-0.100000)"
fill="#000000" stroke="none">
<path d="M950 1920 c0 -35 -3 -40 -22 -40 -13 0 -33 -3 -44 -6 -18 -5 -24 0
-34 31 -10 31 -16 36 -34 31 -11 -4 -34 -9 -49 -13 -25 -5 -28 -10 -24 -32 3
-14 8 -33 11 -41 4 -10 -6 -20 -34 -32 l-40 -16 -24 30 -24 31 -38 -29 c-22
-15 -41 -29 -43 -31 -2 -1 7 -16 19 -33 l22 -31 -28 -30 c-33 -34 -37 -35 -74
-9 l-28 20 -28 -42 -29 -41 31 -25 31 -25 -21 -39 c-21 -39 -29 -41 -80 -22
-12 4 -20 -4 -31 -30 -22 -52 -19 -63 19 -76 24 -7 33 -16 31 -28 -15 -72 -14
-71 -53 -74 l-37 -3 0 -50 0 -50 36 -3 c39 -3 49 -18 49 -74 0 -21 -6 -28 -30
-33 -16 -4 -32 -10 -34 -13 -2 -4 3 -28 10 -54 l14 -47 39 14 38 13 21 -43 21
-43 -31 -24 -31 -24 28 -42 c15 -23 31 -42 35 -42 4 0 15 9 25 20 22 24 38 25
56 4 11 -14 17 -7 46 50 l33 65 -30 45 c-66 97 -97 264 -70 377 75 318 443
479 723 315 60 -36 149 -131 182 -195 75 -150 68 -339 -18 -482 l-34 -56 30
-59 c37 -73 33 -70 55 -50 18 15 20 15 45 -4 14 -11 28 -20 31 -20 3 0 18 18
33 41 l27 41 -31 24 -31 24 20 40 c14 28 25 39 35 36 56 -22 61 -20 75 31 l14
48 -39 14 c-27 9 -37 18 -33 28 3 8 6 28 6 44 0 27 2 29 41 29 l40 0 -3 53 -3
52 -35 0 c-31 0 -36 4 -41 30 -13 58 -11 62 26 69 40 8 40 7 19 69 l-15 46
-39 -14 -38 -14 -17 42 c-16 41 -16 41 9 60 33 24 33 35 -2 76 l-27 33 -28
-22 -28 -22 -30 28 c-34 33 -35 38 -9 71 l20 26 -41 30 -42 31 -26 -31 -26
-31 -38 20 c-27 13 -37 24 -33 35 21 55 19 60 -30 77 -26 9 -49 16 -50 16 -1
0 -5 -13 -9 -30 -8 -38 -17 -43 -65 -35 -39 7 -40 8 -40 46 l0 39 -50 0 -50 0
0 -40z m-19 -112 c-4 -27 -6 -29 -9 -10 -2 12 -9 22 -15 22 -7 0 -6 4 3 10 24
15 27 12 21 -22z m54 22 l-20 -9 20 -1 c17 -2 17 -3 3 -7 -10 -2 -18 -8 -18
-13 0 -5 8 -11 18 -13 13 -4 11 -5 -5 -6 -19 -1 -23 4 -23 29 0 25 4 30 23 29
21 0 21 -1 2 -9z m70 0 c3 -6 -1 -7 -9 -4 -12 4 -16 0 -16 -16 0 -16 4 -20 15
-16 8 3 15 1 15 -4 0 -17 -37 -11 -44 6 -11 27 24 58 39 34z m55 -22 c0 6 4
12 9 12 4 0 6 -11 3 -25 -2 -14 -9 -25 -14 -25 -5 0 -6 5 -2 11 4 7 0 9 -13 5
-17 -6 -20 -3 -15 19 4 24 5 24 18 8 8 -11 13 -13 14 -5z m-280 -8 c-12 -8
-12 -10 -1 -10 10 0 11 -3 2 -13 -6 -8 -8 -17 -4 -20 3 -4 2 -7 -4 -7 -12 0
-25 39 -17 52 3 4 13 8 22 8 15 0 15 -2 2 -10z m330 -7 c0 -15 2 -16 10 -3 13
22 19 9 8 -20 -9 -23 -10 -24 -20 -6 -8 15 -12 16 -20 5 -8 -11 -8 -10 -4 4 3
10 6 23 6 28 0 5 5 9 10 9 6 0 10 -8 10 -17z m-370 -18 c16 -19 6 -45 -19 -45
-23 0 -35 28 -20 46 15 18 24 18 39 -1z m449 2 c15 -19 -10 -53 -33 -44 -16 6
-22 38 -9 50 10 11 30 8 42 -6z m27 -33 c-4 -9 -1 -23 5 -30 14 -17 -2 -19
-18 -3 -9 9 -9 16 0 30 15 23 21 25 13 3z m73 -18 c15 -18 3 -46 -19 -46 -10
0 -21 7 -24 16 -6 16 9 44 24 44 4 0 13 -6 19 -14z m-666 -3 c-7 -2 -13 -9
-13 -14 0 -4 6 -7 13 -5 6 1 9 1 5 -1 -16 -9 -7 -22 10 -16 14 5 15 3 4 -8
-10 -11 -15 -11 -28 3 -18 18 -13 48 8 47 10 0 10 -2 1 -6z m-27 -80 c-2 -3
-9 5 -16 16 -6 13 -16 19 -23 14 -7 -4 -6 0 2 10 13 16 15 15 28 -9 7 -15 11
-29 9 -31z m762 27 c5 -13 3 -13 -11 -2 -17 14 -37 9 -37 -10 0 -5 7 -8 15 -4
16 6 21 -9 6 -18 -13 -9 -34 22 -27 40 7 19 47 15 54 -6z m-792 -59 c-10 -16
-31 -14 -46 4 -8 9 -9 15 -2 15 6 0 14 -5 17 -10 4 -6 11 -8 16 -4 6 4 3 15
-7 27 l-18 22 23 -21 c13 -12 20 -27 17 -33z m828 8 c-5 -8 -44 -19 -44 -12 0
2 5 13 10 24 9 15 13 17 24 7 8 -7 12 -16 10 -19z m-886 -29 c7 -11 8 -20 3
-20 -6 0 -13 5 -16 10 -4 6 -11 8 -16 5 -5 -3 -6 1 -3 9 8 21 17 20 32 -4z
m-12 -48 c-4 -3 -14 2 -24 12 -16 18 -16 18 6 6 13 -6 21 -14 18 -18z m951 11
c-4 -3 -2 -12 4 -20 9 -10 8 -13 -5 -13 -9 0 -16 -4 -16 -10 0 -5 -4 -10 -10
-10 -5 0 -7 7 -4 15 4 9 0 15 -7 15 -9 1 -7 6 5 15 19 15 46 21 33 8z m-967
-48 c0 -3 -9 -1 -20 5 -11 6 -20 8 -20 4 0 -4 -2 -5 -5 -2 -3 3 -3 12 1 21 5
13 8 13 25 -4 10 -10 19 -21 19 -24z m984 -19 c-3 -8 2 -16 12 -18 14 -2 12
-6 -10 -16 -25 -11 -27 -11 -21 8 4 13 2 20 -7 20 -10 0 -9 3 2 10 21 14 30
12 24 -4z m-1013 -6 c12 0 12 -27 -1 -35 -6 -4 -7 1 -3 12 5 15 3 16 -8 6 -19
-19 -29 -16 -29 8 0 15 4 19 16 15 9 -3 20 -6 25 -6z m-27 -46 c21 -8 21 -24
0 -24 -8 0 -13 4 -9 9 3 5 -3 12 -12 14 -10 3 -13 5 -6 6 6 0 18 -2 27 -5z
m1074 -16 c-2 -6 -14 -18 -26 -26 -20 -13 -22 -13 -16 3 4 10 1 21 -7 26 -10
6 -4 9 19 9 21 0 32 -4 30 -12z m-1078 -18 c12 -8 11 -10 -7 -10 -12 0 -25 5
-28 10 -8 13 15 13 35 0z m0 -30 c13 -9 13 -10 0 -10 -8 0 -22 5 -30 10 -13 9
-13 10 0 10 8 0 22 -5 30 -10z m1092 0 c4 -30 1 -35 -25 -37 -24 -2 -27 0 -17
13 10 11 10 14 -1 15 -8 0 -5 4 6 9 27 12 35 12 37 0z m-17 -70 c-3 -6 1 -7 9
-4 9 3 16 2 16 -4 0 -9 -22 -22 -39 -22 -4 0 -7 9 -7 20 0 11 6 20 14 20 7 0
10 -4 7 -10z m-1075 -9 c0 -16 -25 -19 -38 -5 -11 12 -8 14 13 14 14 0 25 -4
25 -9z m-15 -31 c18 -8 17 -9 -7 -9 -16 -1 -28 4 -28 9 0 12 8 12 35 0z m1112
-35 c1 -16 1 -16 -3 -2 -3 9 -12 17 -19 17 -19 0 -28 -17 -13 -23 7 -2 10 -8
5 -12 -11 -13 -30 12 -23 30 9 23 50 15 53 -10z m-1104 -5 c-3 -12 0 -20 8
-20 7 0 10 -2 7 -5 -9 -9 -58 6 -58 17 0 6 7 8 15 4 8 -3 14 -2 14 2 -2 14 1
22 10 22 5 0 7 -9 4 -20z m1090 -36 c9 -3 13 -13 10 -25 -7 -24 -22 -25 -30
-1 -4 9 -11 20 -17 24 -13 9 15 11 37 2z m-1088 -14 c-28 -12 -37 -12 -30 0 3
6 16 10 28 9 21 0 21 -1 2 -9z m22 -35 c6 -18 5 -20 -23 -29 -22 -7 -40 16
-28 35 9 15 44 10 51 -6z m1063 -14 c0 -5 -9 -7 -20 -4 -27 7 -25 -11 3 -26
22 -11 22 -11 -3 -5 -32 8 -44 19 -36 33 9 13 56 15 56 2z m-1052 -33 c-2 -6
-14 -12 -26 -13 -28 -2 -28 3 1 15 29 12 29 12 25 -2z m1038 -30 c10 -15 -17
-40 -31 -28 -6 5 -15 7 -18 3 -4 -3 -7 -1 -7 5 0 7 5 12 11 12 6 0 9 6 6 14
-4 10 0 12 14 9 11 -3 22 -10 25 -15z m-1026 1 c0 -8 -42 -20 -48 -14 -2 2 -2
8 1 12 6 10 47 12 47 2z m-10 -34 c-14 -7 -27 -11 -30 -9 -6 7 22 24 40 23 9
0 5 -6 -10 -14z m40 -35 c0 -5 -4 -10 -10 -10 -5 0 -10 5 -10 10 0 6 5 10 10
10 6 0 10 -4 10 -10z m940 0 c0 -5 -4 -10 -10 -10 -5 0 -10 5 -10 10 0 6 5 10
10 10 6 0 10 -4 10 -10z"/>
<path d="M755 1761 c-7 -12 12 -24 25 -16 11 7 4 25 -10 25 -5 0 -11 -4 -15
-9z"/>
<path d="M1205 1770 c-7 -12 2 -30 16 -30 5 0 9 9 9 20 0 21 -15 27 -25 10z"/>
<path d="M1311 1716 c-9 -10 -9 -16 -1 -21 17 -10 37 12 24 25 -8 8 -15 6 -23
-4z"/>
<path d="M450 1125 c0 -9 6 -12 15 -9 8 4 15 10 15 15 0 5 -7 9 -15 9 -8 0
-15 -7 -15 -15z"/>
<path d="M1510 1050 c0 -5 5 -10 11 -10 5 0 7 5 4 10 -3 6 -8 10 -11 10 -2 0
-4 -4 -4 -10z"/>
<path d="M959 1723 c-1 -5 -1 -11 0 -15 0 -5 -14 -9 -31 -9 -18 -1 -25 -3 -15
-6 18 -5 24 -33 6 -33 -5 0 -7 5 -3 12 4 7 3 8 -4 4 -17 -10 -15 -16 11 -25
23 -9 47 2 47 22 0 6 -7 2 -15 -9 -8 -10 -15 -14 -15 -8 0 14 21 34 36 34 7 0
15 -10 17 -22 3 -18 5 -16 6 8 0 16 -4 35 -11 42 -14 14 -27 16 -29 5z"/>
<path d="M1069 1686 c9 -11 10 -16 2 -16 -6 0 -11 -7 -11 -15 0 -8 5 -15 11
-15 5 0 8 4 5 9 -7 11 22 36 31 27 3 -3 2 -6 -4 -6 -7 0 -9 -9 -5 -22 5 -21 6
-21 13 7 5 16 7 30 6 31 -1 0 -15 4 -31 8 -26 6 -28 5 -17 -8z"/>
<path d="M790 1670 c0 -18 -3 -19 -22 -9 -20 10 -21 10 -11 -2 9 -11 3 -19
-30 -42 -23 -16 -51 -40 -61 -54 -18 -25 -18 -27 -2 -39 14 -10 21 -10 31 -1
11 10 11 15 -1 28 -20 23 -4 32 19 12 19 -18 20 -17 8 5 -15 29 -6 42 12 18 8
-11 19 -15 30 -10 19 7 23 29 7 39 -6 4 -7 11 -4 17 4 7 14 2 26 -13 18 -22
18 -22 9 -2 -13 26 -14 33 -3 33 5 0 14 -10 21 -22 11 -23 11 -23 5 2 -4 14
-11 28 -17 31 -5 4 -6 12 -3 18 4 6 2 11 -3 11 -6 0 -11 -9 -11 -20z m-30 -60
c0 -5 0 -12 0 -15 0 -14 -13 -8 -16 8 -1 9 2 17 7 17 5 0 9 -4 9 -10z m-76
-71 c-3 -5 -10 -7 -15 -3 -5 3 -7 10 -3 15 3 5 10 7 15 3 5 -3 7 -10 3 -15z"/>
<path d="M841 1672 c19 -13 28 -39 9 -27 -5 3 -10 1 -10 -5 0 -7 6 -10 13 -7
6 2 11 15 10 28 l-3 24 15 -25 14 -25 -1 26 c-2 23 -6 27 -35 26 -30 -1 -31
-2 -12 -15z"/>
<path d="M1147 1664 c3 -8 0 -14 -6 -14 -15 0 -14 -27 1 -36 8 -5 9 -2 5 9 -9
24 3 21 35 -10 27 -26 28 -26 42 -7 8 10 18 16 22 11 4 -4 2 -13 -4 -19 -20
-20 -13 -29 6 -10 16 15 17 19 5 34 -16 18 -53 31 -53 17 0 -5 5 -9 10 -9 6 0
10 -4 10 -10 0 -5 -7 -10 -15 -10 -8 0 -15 7 -15 15 0 8 -7 15 -15 15 -18 0
-20 17 -3 22 7 3 3 7 -9 10 -16 4 -20 2 -16 -8z"/>
<path d="M907 1611 c-55 -18 -117 -57 -145 -91 -57 -69 -83 -175 -57 -236 43
-104 141 -149 227 -106 l36 19 5 -36 c6 -49 2 -52 -38 -35 -72 30 -179 10
-227 -42 -24 -27 -239 -507 -234 -521 4 -9 29 -1 83 25 75 36 82 37 188 37 93
0 118 -3 159 -23 27 -12 56 -31 63 -42 19 -26 67 -26 94 1 45 45 107 63 219
64 98 0 110 -2 174 -32 37 -18 70 -33 72 -33 15 0 -12 61 -125 289 -113 224
-134 260 -160 270 -36 16 -91 18 -152 8 l-45 -8 4 35 c4 34 5 35 25 21 30 -21
106 -19 143 4 60 37 104 117 104 190 0 51 -40 130 -85 170 -92 80 -219 108
-328 72z m228 -26 c105 -46 167 -128 168 -220 1 -112 -93 -208 -188 -191 -49
10 -61 29 -33 55 22 21 23 21 30 2 10 -29 43 -35 88 -14 47 21 51 43 13 73
-35 27 -84 24 -98 -7 -5 -13 -15 -25 -22 -27 -21 -8 -15 20 11 51 25 30 146
119 146 108 0 -3 5 -3 11 0 17 11 -30 54 -67 61 -34 6 -74 -9 -74 -29 0 -7
-16 -25 -35 -40 -43 -35 -45 -20 -4 28 24 26 27 35 15 35 -9 0 -29 -20 -44
-45 -15 -24 -29 -44 -32 -45 -3 0 -6 18 -7 40 -2 25 2 40 9 40 20 0 48 32 48
54 -1 21 -70 109 -70 88 0 -6 -11 -23 -25 -38 -14 -15 -25 -37 -25 -50 0 -12
11 -31 25 -42 19 -15 25 -29 25 -58 l0 -39 -41 48 c-43 50 -63 58 -33 13 9
-15 14 -29 11 -32 -8 -8 -58 27 -52 37 3 4 -4 18 -16 30 -24 24 -57 20 -99
-10 -38 -28 -35 -44 12 -63 53 -22 67 -22 88 -3 16 14 20 13 49 -11 34 -28 54
-62 65 -108 7 -27 4 -26 -38 21 -43 47 -100 83 -112 70 -3 -3 8 -13 25 -21 27
-15 81 -73 81 -89 0 -15 -21 -6 -42 18 -32 37 -79 34 -113 -7 l-26 -31 38 -14
c69 -26 79 -26 96 -2 15 20 19 21 43 11 21 -10 24 -15 14 -27 -16 -20 -78 -36
-109 -28 -36 8 -89 49 -112 87 -27 44 -25 118 6 184 39 85 108 135 215 157 69
15 121 9 185 -20z m-18 -234 c-16 -14 -43 -45 -58 -70 l-29 -45 0 47 c0 43 4
52 46 93 l46 46 12 -23 c12 -22 10 -26 -17 -48z m-174 -248 c21 -11 27 -21 27
-46 0 -53 -27 -131 -65 -188 -20 -28 -34 -54 -31 -56 6 -6 63 24 71 37 11 18
22 11 44 -26 16 -27 21 -52 21 -110 0 -45 -4 -74 -11 -74 -5 0 -8 4 -5 9 9 14
-15 28 -93 51 -61 19 -89 22 -171 18 l-98 -5 60 171 c33 94 64 183 70 199 6
17 20 29 36 33 15 3 32 7 37 9 18 5 79 -8 108 -22z m270 8 c13 -5 40 -61 84
-176 36 -94 69 -180 73 -192 9 -22 8 -22 -80 -22 -50 0 -109 -5 -132 -12 -54
-14 -118 -46 -118 -59 0 -6 -4 -10 -10 -10 -17 0 -12 162 5 187 13 19 19 20
46 11 37 -13 48 -4 25 21 -23 25 -52 114 -60 182 l-7 56 33 10 c38 13 115 15
141 4z m-498 -63 c-92 -218 -196 -443 -204 -446 -7 -2 -1 20 12 50 178 398
192 428 203 428 2 0 -3 -15 -11 -32z m595 -83 c0 -5 -5 -3 -10 5 -5 8 -10 20
-10 25 0 6 5 3 10 -5 5 -8 10 -19 10 -25z m185 -353 c-12 -15 -40 30 -85 138
-29 72 -55 128 -57 126 -3 -3 18 -59 82 -210 10 -24 12 -37 5 -34 -18 6 -109
253 -103 280 3 16 2 19 -5 10 -7 -11 -10 -11 -15 2 -4 9 -4 23 0 31 3 10 39
-52 93 -162 48 -98 86 -179 85 -181z m-876 149 c-23 -56 -39 -104 -36 -107 3
-3 22 -1 42 6 74 24 276 6 334 -31 19 -12 9 -11 -109 16 -85 19 -188 15 -259
-10 -32 -11 -42 -12 -38 -2 25 65 101 236 103 234 2 -2 -15 -49 -37 -106z
m298 -83 c38 -11 62 -23 56 -25 -7 -3 -37 3 -65 13 -56 19 -226 26 -283 11
-24 -6 -27 -5 -12 4 55 33 194 32 304 -3z m468 22 c4 -6 -26 -10 -82 -10 -92
0 -164 -15 -223 -45 l-35 -18 19 21 c19 21 86 48 141 55 63 8 174 7 180 -3z
m12 -34 c16 -15 -10 -16 -78 -2 l-74 15 73 -3 c40 -2 76 -6 79 -10z m-169 -3
c-10 -2 -26 -2 -35 0 -10 3 -2 5 17 5 19 0 27 -2 18 -5z m-107 -28 c-30 -14
-56 -23 -59 -20 -6 6 78 45 98 45 8 0 -9 -11 -39 -25z"/>
<path d="M933 774 c-4 -10 1 -22 11 -29 13 -10 14 -14 4 -18 -9 -4 -8 -6 3 -6
22 -1 32 25 19 50 -13 23 -29 25 -37 3z m27 -14 c0 -5 -2 -10 -4 -10 -3 0 -8
5 -11 10 -3 6 -1 10 4 10 6 0 11 -4 11 -10z"/>
<path d="M874 764 c3 -9 6 -22 6 -30 0 -8 5 -14 10 -14 6 0 10 14 10 30 0 21
-5 30 -16 30 -11 0 -14 -5 -10 -16z"/>
<path d="M1047 770 c-3 -13 0 -20 9 -20 8 0 14 -5 14 -11 0 -6 -7 -9 -15 -5
-8 3 -15 1 -15 -4 0 -14 37 -12 46 2 4 6 -1 17 -11 25 -11 7 -13 13 -7 13 7 0
12 5 12 10 0 19 -28 10 -33 -10z"/>
<path d="M1120 775 c-8 -9 -8 -15 -2 -15 6 0 13 -10 15 -22 3 -14 5 -9 6 15 1
41 -1 44 -19 22z"/>
<path d="M1289 1587 c12 -15 11 -20 -4 -37 -10 -11 -14 -20 -8 -20 5 0 17 8
27 18 15 18 15 20 -6 38 -19 16 -20 16 -9 1z"/>
<path d="M1255 1571 c-7 -12 12 -24 25 -16 11 7 4 25 -10 25 -5 0 -11 -4 -15
-9z"/>
<path d="M1360 1500 c0 -5 -6 -7 -14 -4 -22 8 -26 -23 -6 -46 16 -18 21 -19
38 -9 19 12 19 15 6 41 -15 29 -24 36 -24 18z m20 -35 c0 -8 -5 -15 -11 -15
-5 0 -7 5 -3 12 5 8 2 9 -9 5 -9 -3 -19 -2 -22 3 -4 6 5 10 19 10 16 0 26 -6
26 -15z"/>
<path d="M603 1478 c-22 -29 -24 -38 -7 -31 12 4 15 3 10 -5 -11 -18 19 -15
34 3 7 9 11 17 9 18 -2 1 -11 8 -20 15 -13 10 -18 10 -26 0z m25 -33 c-3 -3
-9 2 -12 12 -6 14 -5 15 5 6 7 -7 10 -15 7 -18z"/>
<path d="M1393 1423 c-7 -3 -13 -12 -13 -21 0 -15 -2 -15 -11 -2 -9 12 -10 12
-7 1 6 -20 28 -26 28 -7 0 8 4 18 10 21 6 3 7 -1 4 -9 -3 -9 -1 -16 5 -16 12
0 15 26 4 33 -5 2 -14 2 -20 0z"/>
<path d="M544 1408 c-4 -6 -2 -14 4 -16 7 -2 10 -15 7 -30 -5 -23 -4 -24 4 -7
8 16 10 17 10 4 1 -19 28 -33 36 -19 4 6 -1 10 -9 10 -25 0 -19 20 7 21 20 1
20 2 2 6 -11 3 -29 12 -40 20 -19 13 -19 14 7 9 15 -2 32 -7 38 -11 5 -3 10
-2 10 3 0 20 -65 28 -76 10z"/>
<path d="M1393 1340 c2 -8 12 -14 21 -14 24 2 19 -14 -6 -19 -20 -4 -19 -4 5
-6 23 -1 27 3 27 25 0 23 -2 25 -16 13 -13 -10 -17 -10 -26 2 -8 12 -9 12 -5
-1z"/>
<path d="M546 1314 c-9 -24 -7 -27 9 -14 10 9 15 9 15 1 0 -6 7 -11 15 -11 8
0 15 8 15 18 0 14 -2 15 -10 2 -5 -8 -10 -10 -10 -4 0 19 -28 24 -34 8z"/>
<path d="M540 1249 c0 -22 4 -27 18 -23 14 5 14 3 -2 -10 -16 -13 -17 -19 -8
-28 8 -8 12 -9 12 -1 0 6 9 9 20 6 22 -6 28 12 8 20 -10 4 -9 8 2 16 12 9 10
11 -12 11 -16 0 -28 4 -28 9 0 5 12 11 28 13 26 3 26 4 -5 9 -31 5 -33 4 -33
-22z"/>
<path d="M1363 1264 c-3 -8 -1 -20 5 -26 7 -7 10 -2 9 16 -2 30 -5 32 -14 10z"/>
<path d="M1401 1261 c-9 -16 -6 -19 19 -23 26 -4 30 -1 30 19 0 29 -35 32 -49
4z m39 -1 c0 -5 -7 -10 -15 -10 -8 0 -15 5 -15 10 0 6 7 10 15 10 8 0 15 -4
15 -10z"/>
<path d="M1397 1213 c-4 -3 -7 -11 -7 -16 0 -6 3 -7 7 -4 3 4 13 2 20 -5 11
-9 17 -9 24 3 12 20 11 37 -2 19 -8 -11 -12 -12 -16 -2 -5 13 -16 16 -26 5z"/>
<path d="M469 468 c-24 -34 -48 -68 -52 -75 -7 -11 104 -13 592 -13 l601 0
-46 75 -45 75 -503 0 -502 0 -45 -62z m248 22 c32 0 33 -1 32 -37 l-2 -38 -7
35 -7 35 -11 -25 c-10 -24 -11 -24 -11 -2 -1 35 -21 26 -23 -10 l-1 -33 -4 33
c-5 40 -21 42 -25 2 -3 -30 -3 -30 -27 -14 -18 13 -20 18 -10 25 12 7 11 11
-1 19 -11 7 -7 10 18 10 24 0 31 4 26 13 -6 10 -4 10 7 0 7 -7 28 -13 46 -13z
m284 0 c39 0 39 0 38 -37 0 -29 -2 -33 -8 -18 -5 11 -6 26 -3 34 3 9 1 12 -6
7 -7 -4 -12 -16 -12 -27 0 -11 -5 -17 -10 -14 -6 4 -8 15 -5 26 4 13 2 19 -9
19 -11 0 -16 -10 -17 -32 -1 -18 -3 -25 -6 -15 -2 10 -12 16 -21 15 -11 -2
-16 3 -14 15 2 12 -4 17 -19 17 -18 0 -20 -2 -9 -15 10 -13 11 -18 1 -28 -10
-9 -11 -8 -6 6 4 9 3 17 -3 17 -6 0 -12 -9 -14 -19 -3 -18 -5 -18 -22 -5 -17
12 -18 16 -6 27 9 8 11 8 6 0 -3 -6 -2 -14 4 -18 5 -3 10 3 10 14 0 11 -8 22
-17 24 -10 3 8 5 40 6 38 1 57 5 58 14 0 10 2 10 6 0 2 -8 22 -13 44 -13z
m291 0 l108 0 0 -32 c0 -21 -3 -28 -9 -20 -4 7 -14 12 -22 10 -9 -2 -13 4 -11
15 2 9 -2 17 -8 17 -5 0 -11 -15 -11 -32 -1 -18 -3 -26 -6 -17 -2 10 -13 19
-24 22 -16 4 -19 2 -13 -16 5 -17 4 -19 -6 -10 -17 15 -4 47 15 39 8 -3 15 -1
15 4 0 6 -11 10 -25 10 -20 0 -25 -5 -25 -25 0 -14 -4 -25 -10 -25 -5 0 -10
12 -10 28 l-1 27 -13 -30 c-8 -19 -15 -25 -20 -17 -4 7 -2 12 6 12 9 0 9 3 -2
10 -23 15 -28 12 -33 -17 -4 -26 -4 -26 -6 5 -1 26 -5 32 -23 32 -21 0 -21 0
-2 -14 16 -13 17 -17 5 -28 -12 -11 -13 -10 -8 5 4 9 2 17 -3 17 -5 0 -10 -9
-12 -21 -3 -18 -5 -19 -23 -5 -17 12 -18 17 -6 28 10 9 12 9 7 1 -4 -7 -2 -13
3 -13 17 0 13 18 -6 29 -16 9 -14 10 9 11 15 0 30 5 34 11 4 8 9 8 17 0 7 -7
55 -11 119 -11z m-258 -92 c-3 -4 -12 -8 -20 -8 -8 0 -14 4 -14 8 0 4 9 8 19
8 11 0 17 -4 15 -8z"/>
<path d="M636 464 c-4 -9 -4 -19 -1 -22 2 -3 7 3 11 12 4 9 4 19 1 22 -2 3 -7
-3 -11 -12z"/>
<path d="M940 470 c0 -5 5 -10 10 -10 6 0 10 5 10 10 0 6 -4 10 -10 10 -5 0
-10 -4 -10 -10z"/>
<path d="M1370 470 c0 -5 5 -10 11 -10 5 0 7 5 4 10 -3 6 -8 10 -11 10 -2 0
-4 -4 -4 -10z"/>
<path d="M420 190 c0 -27 -3 -30 -21 -25 -24 8 -59 -19 -59 -47 0 -28 37 -60
58 -50 9 5 23 7 30 5 15 -6 17 132 2 142 -6 4 -10 -7 -10 -25z m-2 -66 c4 -29
-23 -51 -43 -34 -16 13 -20 42 -8 54 14 14 48 1 51 -20z"/>
<path d="M1080 145 c0 -43 4 -75 10 -75 6 0 10 32 10 75 0 43 -4 75 -10 75 -6
0 -10 -32 -10 -75z"/>
<path d="M1893 140 c0 -47 2 -66 4 -42 2 23 2 61 0 85 -2 23 -4 4 -4 -43z"/>
<path d="M1940 146 c0 -41 5 -78 10 -81 6 -4 10 23 10 74 0 47 -4 81 -10 81
-6 0 -10 -31 -10 -74z"/>
<path d="M62 198 c-21 -21 -13 -47 18 -63 17 -9 30 -22 30 -29 0 -17 -25 -27
-45 -20 -8 4 -15 2 -15 -4 0 -18 33 -23 56 -7 35 23 30 51 -13 74 -31 16 -30
41 2 41 14 0 25 5 25 10 0 14 -43 13 -58 -2z"/>
<path d="M855 200 c-3 -5 -1 -18 4 -27 9 -16 10 -14 11 10 0 28 -5 34 -15 17z"/>
<path d="M971 149 c-24 -73 -27 -107 -5 -66 16 29 64 39 64 13 0 -7 7 -20 16
-27 15 -12 16 -11 9 11 -28 87 -43 124 -52 127 -6 2 -20 -24 -32 -58z m38 -23
c-16 -18 -28 4 -16 31 l12 26 6 -24 c3 -13 3 -28 -2 -33z"/>
<path d="M1555 200 c-3 -5 -1 -10 4 -10 6 0 11 5 11 10 0 6 -2 10 -4 10 -3 0
-8 -4 -11 -10z"/>
<path d="M1684 200 c-26 -10 -44 -57 -33 -87 11 -30 53 -56 79 -48 11 3 20 11
20 16 0 6 -9 8 -20 4 -10 -3 -28 -1 -39 4 -49 27 -27 101 30 101 18 0 28 4 24
10 -7 12 -32 12 -61 0z"/>
<path d="M158 178 c-9 -24 4 -97 18 -109 18 -15 32 -3 16 13 -16 16 -15 65 0
70 9 3 8 9 -4 21 -20 20 -24 21 -30 5z"/>
<path d="M698 178 c-9 -24 4 -97 18 -109 18 -15 32 -3 16 13 -16 16 -15 65 0
70 9 3 8 9 -4 21 -20 20 -24 21 -30 5z"/>
<path d="M230 132 c0 -46 28 -80 49 -59 9 9 14 9 21 -3 11 -17 12 -15 12 40 0
58 -1 62 -10 56 -5 -3 -7 -18 -4 -34 4 -30 -19 -59 -38 -47 -5 3 -10 24 -10
46 0 21 -4 39 -10 39 -5 0 -10 -17 -10 -38z"/>
<path d="M488 158 c-27 -23 -28 -46 -4 -75 17 -20 27 -24 42 -18 18 8 18 9 -3
12 -12 2 -27 11 -33 19 -10 12 -7 14 19 14 35 0 50 22 31 45 -15 18 -31 19
-52 3z m42 -18 c0 -5 -12 -10 -26 -10 -14 0 -23 4 -19 10 3 6 15 10 26 10 10
0 19 -4 19 -10z"/>
<path d="M580 111 c0 -60 16 -61 22 -1 2 27 7 35 23 35 16 0 21 -8 23 -43 4
-48 22 -48 22 1 0 46 -13 60 -54 62 l-36 1 0 -55z"/>
<path d="M779 154 c-12 -14 -9 -20 16 -40 24 -19 26 -24 13 -29 -10 -4 -22 -4
-28 0 -5 3 -10 1 -10 -5 0 -19 30 -23 50 -5 21 19 17 41 -11 50 -25 8 -24 25
2 25 11 0 17 5 14 10 -9 15 -31 12 -46 -6z"/>
<path d="M1142 129 c-2 -50 19 -82 40 -61 6 6 17 8 24 5 11 -4 14 7 14 46 0
28 -4 51 -10 51 -5 0 -10 -15 -10 -34 0 -69 -44 -66 -53 4 -3 31 -4 29 -5 -11z"/>
<path d="M1254 161 c-7 -7 -5 -68 4 -88 5 -13 8 -6 12 27 4 37 9 45 25 45 16
0 21 -8 23 -43 4 -53 22 -45 22 9 0 33 3 40 18 37 12 -2 18 -14 20 -41 4 -49
22 -48 22 2 0 47 -22 71 -50 53 -12 -7 -21 -8 -25 -2 -5 9 -62 10 -71 1z"/>
<path d="M1434 161 c-8 -9 -4 -90 5 -96 6 -3 11 14 13 37 2 35 7 43 23 43 16
0 21 -8 23 -37 2 -21 7 -38 13 -38 14 0 11 76 -3 88 -12 10 -65 12 -74 3z"/>
<path d="M1550 120 c0 -27 5 -50 10 -50 6 0 10 23 10 50 0 28 -4 50 -10 50 -5
0 -10 -22 -10 -50z"/>
<path d="M1785 150 c-11 -12 -15 -28 -11 -43 6 -26 48 -53 65 -43 18 11 13 25
-7 19 -10 -2 -24 3 -31 11 -12 14 -9 16 18 16 35 0 50 22 31 45 -17 21 -44 19
-65 -5z m55 -10 c0 -5 -12 -10 -26 -10 -14 0 -23 4 -19 10 3 6 15 10 26 10 10
0 19 -4 19 -10z"/>
</g>
</svg>
